<?xml version="1.0" standalone="no"?>
<!DOCTYPE svg PUBLIC "-//W3C//DTD SVG 20010904//EN"
 "http://www.w3.org/TR/2001/REC-SVG-20010904/DTD/svg10.dtd">
<svg version="1.0" xmlns="http://www.w3.org/2000/svg"
 width="167.000000pt" height="167.000000pt" viewBox="0 0 167.000000 167.000000"
 preserveAspectRatio="xMidYMid meet">
<metadata>
Created by potrace 1.14, written by Peter Selinger 2001-2017
</metadata>
<g transform="translate(0.000000,167.000000) scale(0.100000,-0.100000)"
fill="#000000" stroke="none">
<path d="M1037 1554 c-1 -1 -42 -5 -92 -8 -49 -4 -109 -9 -132 -12 l-42 -6 5
-72 6 -71 -54 -3 c-29 -2 -66 -5 -82 -6 -16 -1 -31 -6 -33 -12 -2 -6 8 -54 22
-105 14 -52 37 -139 50 -194 14 -55 32 -123 40 -151 8 -28 15 -62 15 -75 0
-13 9 -49 20 -79 21 -55 42 -132 62 -222 9 -39 8 -52 -5 -71 -22 -34 -54 -31
-48 6 0 4 -3 7 -7 7 -4 0 -9 12 -11 28 -1 15 -4 36 -6 47 -1 11 -3 26 -4 33 0
6 -7 12 -15 12 -7 0 -19 6 -25 14 -12 14 -23 14 -196 1 -100 -8 -146 -17 -146
-30 -1 -15 29 -131 58 -223 62 -199 170 -255 438 -228 22 2 40 5 40 6 0 0 29
3 65 6 104 8 160 28 208 75 23 23 42 48 42 56 0 7 4 13 9 13 17 0 39 64 35
102 -3 34 -77 190 -107 226 -6 8 -12 37 -13 65 -1 29 -5 131 -9 227 -10 253
-13 357 -14 513 l-1 138 -35 -3 c-20 -1 -37 -3 -38 -4z"/>
</g>
</svg>
